<svg width="64" height="64" viewBox="0 0 64 64" fill="none" xmlns="http://www.w3.org/2000/svg">
<path d="M32.5128 6.72062C32.2046 7.0176 31.7143 7.01344 31.411 6.71119C31.1077 6.40893 31.1035 5.92061 31.4013 5.61308L34.5454 2.4796C34.5502 2.47433 34.558 2.47267 34.563 2.46823C34.617 2.42026 34.6771 2.38033 34.7422 2.349C34.7636 2.33402 34.7861 2.32016 34.8095 2.30823C34.9022 2.27024 35.0012 2.25055 35.1014 2.25H35.1058C35.1323 2.25055 35.1584 2.25194 35.1846 2.25499H35.1938C35.2057 2.25499 35.2152 2.26497 35.2269 2.26664C35.3251 2.28244 35.4191 2.31627 35.5046 2.36702C35.5318 2.38782 35.5583 2.41028 35.583 2.43413C35.6429 2.47988 35.6957 2.53395 35.7402 2.59496C35.7489 2.60827 35.7647 2.6152 35.7722 2.62851L38.1304 6.54508C38.2809 6.78523 38.2901 7.08748 38.1538 7.3365C38.0177 7.58496 37.7573 7.74052 37.4732 7.74413C37.1888 7.74718 36.9253 7.59743 36.7834 7.35203L35.5302 5.27173C31.4714 24.7636 3.96937 25.7419 3.6825 25.7497C3.24843 25.7614 2.88699 25.42 2.8753 24.9874C2.86334 24.5548 3.20614 24.1946 3.64021 24.183C3.91205 24.176 29.776 23.2371 33.901 5.34133L32.5128 6.72062Z" fill="black"/>
<path d="M7.43616 40.2447H15.7122C16.8547 40.2447 17.7812 41.1709 17.7812 42.3135V59.8997C17.7812 61.0422 16.8547 61.9687 15.7122 61.9687H7.43616C6.29358 61.9687 5.36707 61.0422 5.36707 59.8997V42.3135C5.36707 41.1709 6.29358 40.2447 7.43616 40.2447ZM13.6431 58.8651C13.6431 59.4364 14.1063 59.8997 14.6776 59.8997C15.2489 59.8997 15.7122 59.4364 15.7122 58.8651V43.348C15.7122 42.7767 15.2489 42.3135 14.6776 42.3135C14.1063 42.3135 13.6431 42.7767 13.6431 43.348V58.8651Z" fill="black"/>
<path d="M50.7083 35.6828V13.348C50.7083 12.2054 49.7821 11.2796 48.6392 11.2796H40.3635C39.2206 11.2796 38.2944 12.2054 38.2944 13.348V37.6864C41.9053 35.1485 46.4822 34.4103 50.7083 35.6828ZM48.6823 30.9345C48.6823 31.5058 48.2194 31.9691 47.6477 31.9691C47.0764 31.9691 46.6135 31.5058 46.6135 30.9345V14.3825C46.6135 13.8113 47.0764 13.348 47.6477 13.348C48.2194 13.348 48.6823 13.8113 48.6823 14.3825V30.9345Z" fill="black"/>
<path d="M46.5704 37.1411C39.7146 37.1411 34.1562 42.6987 34.1562 49.5545C34.1562 56.4111 39.7146 61.9687 46.5704 61.9687C53.4263 61.9687 58.9839 56.4111 58.9839 49.5545C58.9766 42.702 53.423 37.1484 46.5704 37.1411ZM43.4668 48.5207H49.6737C51.9592 48.5207 53.8115 50.373 53.8115 52.6582C53.8115 54.9433 51.9592 56.7964 49.6737 56.7964H47.605V58.8651C47.605 59.4364 47.1417 59.8996 46.5704 59.8996C45.9991 59.8996 45.5359 59.4364 45.5359 58.8651V56.7964H40.3635C39.7922 56.7964 39.329 56.3331 39.329 55.7618C39.329 55.1905 39.7922 54.7273 40.3635 54.7273H49.6737C50.8167 54.7273 51.7428 53.8008 51.7428 52.6582C51.7428 51.5156 50.8167 50.5891 49.6737 50.5891H43.4668C41.1816 50.5891 39.329 48.7368 39.329 46.4516C39.329 44.1665 41.1816 42.3135 43.4668 42.3135H45.5359V40.2447C45.5359 39.6734 45.9991 39.2102 46.5704 39.2102C47.1417 39.2102 47.605 39.6734 47.605 40.2447V42.3135H52.777C53.3483 42.3135 53.8115 42.7767 53.8115 43.348C53.8115 43.9193 53.3483 44.3825 52.777 44.3825H43.4668C42.3242 44.3825 41.3977 45.3091 41.3977 46.4516C41.3977 47.5942 42.3242 48.5207 43.4668 48.5207Z" fill="black"/>
<path d="M23.8882 25.7622H32.1642C33.3068 25.7622 34.2333 26.6883 34.2333 27.8309V42.1337C31.4747 46.6966 31.4747 52.4136 34.2333 56.9765V59.8996C34.2333 61.0422 33.3068 61.9687 32.1642 61.9687H23.8882C22.7457 61.9687 21.8199 61.0422 21.8199 59.8996V27.8309C21.8199 26.6883 22.7457 25.7622 23.8882 25.7622ZM30.0951 41.2793C30.0951 41.8506 30.5584 42.3135 31.1297 42.3135C31.701 42.3135 32.1642 41.8506 32.1642 41.2793V28.8655C32.1642 28.2942 31.701 27.8309 31.1297 27.8309C30.5584 27.8309 30.0951 28.2942 30.0951 28.8655V41.2793Z" fill="black"/>
</svg>
