<svg width="64" height="64" viewBox="0 0 64 64" fill="none" xmlns="http://www.w3.org/2000/svg">
<g clip-path="url(#clip0_250_81)">
<path fill-rule="evenodd" clip-rule="evenodd" d="M49.1506 29.7299C49.1049 29.7299 49.0603 29.7231 49.0146 29.7231C47.7793 41.9893 37.0395 51.0663 24.7389 50.2401C12.4383 49.414 3.00868 38.9823 3.42493 26.6609C3.84117 14.3395 13.9531 4.56798 26.2815 4.57377C29.2665 4.56861 32.2228 5.15515 34.9798 6.29924C35.3428 5.61386 35.7551 4.95588 36.2135 4.33024C26.8285 0.297729 15.9368 2.34038 8.65096 9.49969C1.3651 16.659 -0.8684 27.5132 2.99899 36.9674C6.86638 46.4216 16.0669 52.5986 26.2815 52.5989C39.3691 52.6638 50.2876 42.6155 51.3072 29.5674C50.5928 29.6703 49.8723 29.7245 49.1506 29.7299Z" fill="black"/>
<path d="M26.281 6.86073C15.1822 6.84998 6.07357 15.6414 5.69115 26.7337C5.30873 37.8261 13.7901 47.2239 24.8635 47.9776C35.9368 48.7313 45.6134 40.5693 46.7375 29.5274C42.0233 28.8275 37.8696 26.0551 35.4148 21.9701C32.96 17.8851 32.4618 12.916 34.0566 8.42496C31.593 7.39679 28.9506 6.86526 26.281 6.86073ZM26.281 11.4345C22.8157 11.424 19.4421 12.5485 16.676 14.6362C16.1708 15.0151 15.454 14.9127 15.0752 14.4075C14.6964 13.9023 14.7987 13.1855 15.3039 12.8067C18.4655 10.4218 22.3207 9.1368 26.281 9.14765C26.9126 9.14765 27.4245 9.65958 27.4245 10.2911C27.4245 10.9226 26.9126 11.4345 26.281 11.4345Z" fill="black"/>
<path d="M49.1502 27.443C56.7284 27.443 62.8717 21.2996 62.8717 13.7215C62.8717 6.14346 56.7283 0 49.1502 0C41.5722 0 35.4287 6.14335 35.4287 13.7214C35.4369 21.2962 41.5754 27.4347 49.1502 27.443ZM40.3376 15.2C40.784 14.7536 41.5079 14.7536 41.9544 15.2L45.7198 18.9654L56.346 8.33923C56.7947 7.90591 57.5078 7.91213 57.9489 8.35314C58.39 8.79425 58.3961 9.50735 57.9628 9.95605L46.5283 21.3907C46.0818 21.837 45.358 21.837 44.9115 21.3907L40.3377 16.8168C39.8912 16.3703 39.8912 15.6465 40.3376 15.2Z" fill="black"/>
<path fill-rule="evenodd" clip-rule="evenodd" d="M46.5202 46.0573C46.0033 46.6199 45.4614 47.1573 44.8999 47.6752L47.1777 49.953L48.7968 48.3338L46.5202 46.0573Z" fill="black"/>
<path fill-rule="evenodd" clip-rule="evenodd" d="M58.4936 54.8047L53.6431 59.6553L57.0162 63.0284C58.3736 64.3239 60.5094 64.3239 61.8668 63.0284C63.2059 61.6888 63.2059 59.5174 61.8668 58.1779L58.4936 54.8047Z" fill="black"/>
<path fill-rule="evenodd" clip-rule="evenodd" d="M47.1646 53.1868L52.0143 48.337L53.6311 49.9539L48.7814 54.8036L47.1646 53.1868Z" fill="black"/>
<path fill-rule="evenodd" clip-rule="evenodd" d="M50.3975 56.4215L55.2472 51.5718L56.8641 53.1886L52.0143 58.0384L50.3975 56.4215Z" fill="black"/>
</g>
<defs>
<clipPath id="clip0_250_81">
<rect width="64" height="64" fill="white"/>
</clipPath>
</defs>
</svg>
