<svg width="64" height="64" viewBox="0 0 64 64" fill="none" xmlns="http://www.w3.org/2000/svg">
<path d="M32 40.4843C43.8027 36.7808 48 28.6848 48 22.8363C48 17.807 44.72 13.8667 40.5333 13.8667C39.096 13.8658 37.6728 14.1509 36.3466 14.7052C35.0204 15.2595 33.8177 16.072 32.8085 17.0955C32.7084 17.2116 32.5845 17.3047 32.4452 17.3686C32.3058 17.4325 32.1544 17.4656 32.0011 17.4656C31.8481 17.4653 31.6971 17.432 31.5581 17.3682C31.4192 17.3043 31.2956 17.2113 31.1957 17.0955C30.186 16.0715 28.9826 15.2587 27.6557 14.7043C26.3287 14.15 24.9047 13.8653 23.4667 13.8667C19.28 13.8667 16 17.807 16 22.8363C16 28.6848 20.1973 36.7808 32 40.4843ZM18.1333 22.8363C18.1333 19.4763 20.128 16 23.4667 16C23.7496 16 24.0209 16.1124 24.2209 16.3125C24.421 16.5125 24.5333 16.7838 24.5333 17.0667C24.5333 17.3496 24.421 17.6209 24.2209 17.821C24.0209 18.021 23.7496 18.1334 23.4667 18.1334C21.4901 18.1334 20.2667 20.575 20.2667 22.8363C20.2667 23.1192 20.1543 23.3905 19.9542 23.5906C19.7542 23.7906 19.4829 23.903 19.2 23.903C18.9171 23.903 18.6458 23.7906 18.4458 23.5906C18.2457 23.3905 18.1333 23.1192 18.1333 22.8363ZM19.968 26.767C20.2243 26.6473 20.5176 26.6344 20.7835 26.731C21.0493 26.8276 21.2659 27.0259 21.3856 27.2822C22.6944 29.9624 24.7556 32.2034 27.3173 33.7312C27.438 33.8049 27.5427 33.9018 27.6256 34.0163C27.7084 34.1308 27.7677 34.2606 27.7999 34.3982C27.8322 34.5358 27.8368 34.6785 27.8134 34.8179C27.79 34.9572 27.7392 35.0906 27.6639 35.2102C27.5886 35.3297 27.4902 35.4332 27.3746 35.5144C27.2589 35.5956 27.1283 35.6531 26.9902 35.6834C26.8522 35.7137 26.7095 35.7163 26.5705 35.691C26.4314 35.6657 26.2988 35.613 26.1803 35.536C23.2711 33.791 20.9331 31.2365 19.4517 28.1846C19.3925 28.0576 19.3589 27.9202 19.3528 27.7802C19.3467 27.6403 19.3683 27.5005 19.4162 27.3688C19.4642 27.2372 19.5376 27.1163 19.6322 27.013C19.7269 26.9097 19.841 26.8261 19.968 26.767Z" fill="black"/>
<path d="M7.46641 50.1333H20.5267C21.2165 50.1332 21.896 50.3004 22.507 50.6205C23.118 50.9406 23.6423 51.404 24.0349 51.9712L30.2504 60.9493C30.4455 61.2331 30.7066 61.4652 31.0114 61.6255C31.3162 61.7859 31.6554 61.8697 31.9997 61.8697C32.3441 61.8697 32.6833 61.7859 32.9881 61.6255C33.2928 61.4652 33.554 61.2331 33.7491 60.9493L39.9645 51.9712C40.3572 51.404 40.8815 50.9406 41.4925 50.6205C42.1035 50.3004 42.783 50.1332 43.4728 50.1333H56.5331C58.2305 50.1333 59.8583 49.459 61.0586 48.2588C62.2588 47.0585 62.9331 45.4307 62.9331 43.7333V9.59995C62.9331 7.90257 62.2588 6.2747 61.0586 5.07447C59.8583 3.87424 58.2305 3.19995 56.5331 3.19995H7.46641C5.76902 3.19995 4.14116 3.87424 2.94092 5.07447C1.74069 6.2747 1.06641 7.90257 1.06641 9.59995V43.7333C1.06641 45.4307 1.74069 47.0585 2.94092 48.2588C4.14116 49.459 5.76902 50.1333 7.46641 50.1333ZM23.4664 11.7333C26.6012 11.7275 29.6322 12.8562 31.9997 14.9109C34.3673 12.8562 37.3983 11.7275 40.5331 11.7333C45.9165 11.7333 50.1331 16.6101 50.1331 22.8362C50.1331 29.4656 45.4653 38.6229 32.3101 42.6208C32.1077 42.6819 31.8918 42.6819 31.6893 42.6208C18.5341 38.624 13.8664 29.4656 13.8664 22.8362C13.8664 16.6101 18.0829 11.7333 23.4664 11.7333Z" fill="black"/>
</svg>
