<svg width="64" height="64" viewBox="0 0 64 64" fill="none" xmlns="http://www.w3.org/2000/svg">
<g clip-path="url(#clip0_250_105)">
<path d="M40.4742 9.1268H43.7073L46.1895 6.48223C46.5023 6.15049 46.588 5.6645 46.4073 5.24576C46.2268 4.82702 45.8146 4.55577 45.3586 4.5554H44.5724C43.9413 4.5554 43.4295 4.04378 43.4295 3.41255V2.62744C43.4298 2.17145 43.1589 1.75908 42.7404 1.57809C42.3219 1.39709 41.8359 1.48209 41.5038 1.79433L38.833 4.3029L38.8468 7.52683L41.7804 4.59315C42.2288 4.16003 42.9417 4.16628 43.3825 4.60702C43.8234 5.04789 43.8295 5.76062 43.3964 6.20911L40.4742 9.1268Z" fill="black"/>
<path d="M9.00702 56.9807C9.23064 57.0774 9.47188 57.1269 9.71563 57.1259C10.3896 57.1264 11.0014 56.732 11.279 56.1179L14.7075 48.5683C13.6375 48.1636 12.5954 47.6889 11.5876 47.1477L8.14991 54.7088C7.76567 55.573 8.14766 56.5856 9.00702 56.9807Z" fill="black"/>
<path d="M48.0001 31.9834C39.1638 31.9834 32.0005 39.1467 32.0005 47.9831C32.0005 56.8194 39.1638 63.9827 48.0001 63.9827C56.8365 63.9827 63.9998 56.8194 63.9998 47.9831C63.9904 39.1506 56.8327 31.9929 48.0001 31.9834ZM55.6652 55.648C55.219 56.0941 54.4955 56.0941 54.0493 55.648L47.1923 48.791C46.9779 48.5768 46.8575 48.2862 46.8574 47.9831V36.5547C46.8574 35.9236 47.369 35.4118 48.0003 35.4118C48.6314 35.4118 49.1431 35.9234 49.1431 36.5547V47.5098L55.6652 54.0319C56.1113 54.4783 56.1113 55.2018 55.6652 55.648Z" fill="black"/>
<path d="M24.0009 47.9831C25.939 47.9788 27.8695 47.7404 29.7505 47.2733C29.8132 45.5587 30.118 43.8616 30.6556 42.2323C22.195 45.3176 12.7232 42.1842 7.77172 34.6621C2.8202 27.14 3.68705 17.201 9.86604 10.6496C16.045 4.09825 25.9163 2.65191 33.715 7.15531C34.2319 7.48393 34.3979 8.16141 34.0914 8.69165C33.7849 9.22189 33.1149 9.41626 32.5722 9.13239C25.4385 5.01911 16.3878 6.55932 11.0161 12.8008C5.64451 19.0423 5.46976 28.2214 10.5999 34.6627C15.73 41.1041 24.7155 42.9877 32.0007 39.1489C33.6717 36.1369 36.1544 33.6542 39.1663 31.9833C41.9101 26.7711 41.7915 20.5165 38.852 15.4123C38.5682 14.8696 38.7626 14.1995 39.2928 13.893C39.823 13.5865 40.5006 13.7525 40.8291 14.2694C43.7008 19.2472 44.2213 25.241 42.2509 30.6393C43.8797 30.1016 45.5765 29.7968 47.2907 29.7342C47.758 27.8529 47.9962 25.9219 48.0005 23.9834C48.0029 19.499 46.74 15.1049 44.3572 11.306C44.1469 11.3735 43.9277 11.4092 43.7069 11.4122H38.1882L24.8089 24.7916C24.3605 25.2247 23.6476 25.2184 23.2068 24.7777C22.7659 24.3369 22.7598 23.6241 23.1929 23.1756L36.5721 9.7965V4.27775C36.5751 4.057 36.6105 3.83788 36.6772 3.62751C28.032 -1.7575 16.9289 -1.09689 8.98319 5.27523C1.03748 11.6473 -2.01882 22.3417 1.35985 31.9502C4.73853 41.5586 13.8157 47.9866 24.0009 47.9831ZM24.0009 27.4121C24.9128 27.4109 25.7873 27.0485 26.4328 26.4042C26.8882 26.0034 27.5774 26.0284 28.0027 26.4609C28.4279 26.8935 28.4411 27.583 28.0328 28.0315C25.8003 30.2639 22.1808 30.2639 19.9483 28.0315C17.7159 25.799 17.7159 22.1795 19.9483 19.947C20.2279 19.6292 20.6606 19.4919 21.0723 19.5905C21.484 19.689 21.8077 20.0072 21.9132 20.4172C22.0187 20.8271 21.8889 21.2619 21.5758 21.547C20.5863 22.5265 20.2874 24.0071 20.8194 25.2935C21.3516 26.5803 22.6086 27.4174 24.0009 27.4121ZM29.234 13.7667C29.1219 14.0485 28.9023 14.2743 28.6236 14.394C28.345 14.5139 28.03 14.518 27.7484 14.4055C26.5557 13.9334 25.2838 13.6933 24.0011 13.6982C18.3206 13.6982 13.7156 18.3032 13.7156 23.9837C13.7156 29.6642 18.3206 34.2692 24.0011 34.2692C29.6816 34.2692 34.2866 29.6642 34.2866 23.9837C34.2915 22.7006 34.0514 21.4283 33.5793 20.2352C33.4245 19.855 33.4854 19.4212 33.7389 19.0984C33.9923 18.7757 34.3994 18.6136 34.8054 18.6737C35.2114 18.7338 35.5539 19.0071 35.7027 19.3894C36.2822 20.8515 36.5773 22.4109 36.5725 23.9836C36.5725 30.9264 30.9442 36.5547 24.0014 36.5547C17.0585 36.5547 11.4298 30.9264 11.4298 23.9836C11.4298 17.0407 17.058 11.4125 24.0009 11.4125C25.5736 11.4076 27.1329 11.7027 28.595 12.2822C29.1814 12.5157 29.4675 13.1803 29.234 13.7667Z" fill="black"/>
</g>
<defs>
<clipPath id="clip0_250_105">
<rect width="64" height="64" fill="white"/>
</clipPath>
</defs>
</svg>
